<svg xmlns="http://www.w3.org/2000/svg" viewBox="0 0 214.15 73.99"><defs><style>.cls-1{fill:#fff;}</style></defs><g id="Layer_2" data-name="Layer 2"><g id="Layer_1-2" data-name="Layer 1"><path class="cls-1" d="M212.69,52.57h-66a1.08,1.08,0,0,0-1.07,1.07V59.3a1.08,1.08,0,0,0,1.07,1.06H206V72.93a1.05,1.05,0,0,0,.32.75A1,1,0,0,0,207,74h5.67a1.06,1.06,0,0,0,.75-.31,1.08,1.08,0,0,0,.31-.75V53.64a1.13,1.13,0,0,0-.31-.76,1.1,1.1,0,0,0-.75-.31m1.15-12.19a1.06,1.06,0,0,0-.75-.31h-29.7V33.57a.81.81,0,0,0,0-.16h21a1.06,1.06,0,0,0,1.06-1.07V26.68a1.1,1.1,0,0,0-.31-.75,1.08,1.08,0,0,0-.75-.31H166.56V20.74H194.9A1.06,1.06,0,0,0,196,19.68V1.06A1.06,1.06,0,0,0,194.9,0h-31a1.06,1.06,0,0,0-.75.31,1.1,1.1,0,0,0-.31.75V6.73a1.06,1.06,0,0,0,1.06,1.06h24.32V13H159.83a1.11,1.11,0,0,0-.75.3,1.13,1.13,0,0,0-.31.76V32.34a1.06,1.06,0,0,0,1.06,1.07h15.79a.78.78,0,0,0,0,.16v6.49H147a1.07,1.07,0,0,0-.75.32,1,1,0,0,0-.31.74v5.67h0A1.06,1.06,0,0,0,147,47.85h66.08a1.06,1.06,0,0,0,.75-.31,1,1,0,0,0,.31-.75V41.12a1.05,1.05,0,0,0-.31-.74M141.2,64.05H87.66V60.12h49.8a1.08,1.08,0,0,0,1.06-1.06V41.15a1.08,1.08,0,0,0-.31-.75,1.07,1.07,0,0,0-.75-.32H82.79a1.07,1.07,0,0,0-.75.32,1,1,0,0,0-.31.75v5.66a1.06,1.06,0,0,0,1.06,1.06h47.94v4.46H80.94a1.08,1.08,0,0,0-.76.31,1.12,1.12,0,0,0-.3.76V70.78a1.09,1.09,0,0,0,.3.75,1.08,1.08,0,0,0,.76.31H141.2a1.06,1.06,0,0,0,1.06-1.06V65.12a1,1,0,0,0-.31-.75,1.07,1.07,0,0,0-.75-.32M115.13,18.9H131V29.78a1.07,1.07,0,0,0,.31.76,1.11,1.11,0,0,0,.76.31h5.66a1.1,1.1,0,0,0,.75-.31,1.07,1.07,0,0,0,.31-.76V2.43a1.06,1.06,0,0,0-1.06-1.06h-5.66A1.06,1.06,0,0,0,131,2.43v8.68H115.13a1.09,1.09,0,0,0-.75.3,1.06,1.06,0,0,0-.31.75v5.67a1.06,1.06,0,0,0,1.06,1.06M80.32,32.3,92.21,13.55l11.87,17a1,1,0,0,0,.68.44,1.07,1.07,0,0,0,.8-.17l4.64-3.24a1,1,0,0,0,.44-.68,1.07,1.07,0,0,0-.17-.8L92.82.8a1,1,0,0,0-.89-.46,1.07,1.07,0,0,0-.87.49L73.75,28.12a1.07,1.07,0,0,0,.33,1.47l4.78,3a1.06,1.06,0,0,0,.57.17l.23,0a1,1,0,0,0,.66-.46M73.69,55.89H43V39.5A1.06,1.06,0,0,0,42,38.44H36.29a1,1,0,0,0-.74.31,1.07,1.07,0,0,0-.32.75V55.89H1.06A1.06,1.06,0,0,0,0,57v5.66H0v.07a1.14,1.14,0,0,0,.17.5l.14.18a1.1,1.1,0,0,0,.75.31H73.69a1.06,1.06,0,0,0,1.06-1.06V57a1.06,1.06,0,0,0-.31-.75,1,1,0,0,0-.75-.31M32.81,11a9.65,9.65,0,0,1,13,0,7.86,7.86,0,0,1,0,11.63,9.63,9.63,0,0,1-13,0,7.85,7.85,0,0,1,0-11.62M39.3,32.94c9.14,0,16.82-7,16.85-16.11S48.44.72,39.3.71s-16.81,7-16.85,16.11h0c0,9.07,7.72,16.1,16.85,16.11"/></g></g></svg>